<?xml version="1.0" standalone="no"?>
<!DOCTYPE svg PUBLIC "-//W3C//DTD SVG 20010904//EN"
 "http://www.w3.org/TR/2001/REC-SVG-20010904/DTD/svg10.dtd">
<svg version="1.0" xmlns="http://www.w3.org/2000/svg"
 width="667.000000pt" height="667.000000pt" viewBox="0 0 667.000000 667.000000"
 preserveAspectRatio="xMidYMid meet">
<metadata>
Created by potrace 1.16, written by Peter Selinger 2001-2019
</metadata>
<g transform="translate(0.000000,667.000000) scale(0.100000,-0.100000)"
fill="#000000" stroke="none">
<path d="M0 3335 l0 -3335 3335 0 3335 0 0 3335 0 3335 -3335 0 -3335 0 0
-3335z m674 1724 c-3 -6 0 -15 7 -20 8 -5 -43 -9 -127 -9 -130 0 -142 -2 -160
-21 -19 -21 -19 -60 -19 -1516 l0 -1495 24 -19 c20 -17 41 -19 165 -20 77 -1
133 -3 124 -6 -27 -7 -21 -21 10 -26 15 -3 -47 -4 -136 -3 l-164 1 -29 33 -29
32 0 1503 c1 1614 -2 1534 51 1563 31 17 294 20 283 3z m742 -299 c35 -91 62
-173 60 -183 -2 -9 -1 -15 3 -12 5 2 14 -15 22 -38 7 -23 22 -57 32 -74 14
-25 16 -33 5 -33 -10 0 -9 -3 2 -10 8 -5 11 -10 6 -10 -5 0 -3 -7 4 -15 10
-12 9 -15 -6 -16 -13 0 -14 -2 -5 -6 11 -5 11 -7 0 -14 -8 -5 -9 -9 -4 -9 6 0
9 -40 7 -110 -3 -93 -1 -111 12 -116 21 -8 21 -24 0 -24 -12 0 -15 -8 -12 -34
l4 -33 -43 1 c-42 1 -47 5 -46 43 1 7 -3 10 -8 7 -5 -3 -9 -1 -9 5 0 18 -169
436 -176 436 -4 0 -51 -109 -103 -242 l-96 -243 -58 0 c-32 0 -56 3 -54 8 4 5
292 726 348 870 6 16 16 22 30 20 18 -2 33 -31 85 -168z m2294 -744 c0 -8 -13
-17 -30 -21 -35 -8 -80 -58 -80 -89 0 -33 35 -73 75 -87 22 -8 35 -20 35 -31
0 -15 -9 -18 -60 -18 l-60 0 2 -242 3 -243 58 -3 c40 -2 57 -7 57 -17 0 -15
-83 -29 -135 -23 l-30 3 -1 275 c-1 261 3 309 27 294 13 -8 10 7 -6 36 -31 54
-9 126 48 160 38 24 97 27 97 6z m810 1 c0 -8 -18 -19 -40 -26 -47 -14 -70
-43 -70 -89 0 -39 36 -77 81 -87 20 -5 29 -13 29 -26 0 -17 -7 -19 -60 -19
l-60 0 2 -242 3 -243 58 -3 c113 -6 49 -42 -74 -42 l-39 0 0 289 c0 284 0 289
20 284 24 -6 25 4 5 31 -25 33 -19 100 12 136 30 37 55 48 101 49 20 1 32 -4
32 -12z m-3026 -12 c206 -36 338 -120 415 -265 113 -213 60 -501 -117 -631
-141 -104 -323 -138 -550 -105 -62 9 -119 19 -128 23 -13 5 -15 -34 -12 -353
3 -339 4 -361 23 -394 29 -50 93 -80 172 -80 61 0 63 -1 63 -25 l0 -25 -390 0
-390 0 0 25 c0 24 2 25 65 25 45 0 78 6 103 19 98 50 106 100 96 553 l-7 318
-193 0 c-166 0 -194 2 -194 15 0 8 0 18 -1 22 0 4 24 15 53 24 39 13 65 31 98
66 39 42 59 83 142 289 l97 239 1 -142 c0 -119 -3 -149 -20 -188 -11 -25 -27
-73 -35 -105 -14 -52 -14 -64 -1 -94 8 -19 24 -39 35 -46 20 -10 21 -9 21 62
0 40 3 159 6 263 7 204 -5 354 -30 403 -25 49 -78 74 -162 80 -64 4 -74 7 -74
23 0 18 16 19 414 19 325 0 432 -3 500 -15z m2574 9 c34 -5 52 -11 52 -20 0
-11 -20 -14 -85 -14 l-85 0 0 -238 c0 -260 7 -304 55 -367 14 -19 44 -45 65
-57 40 -23 56 -43 41 -52 -17 -11 -109 44 -144 85 -61 71 -67 107 -67 406 l0
263 58 0 c31 0 81 -3 110 -6z m-926 -192 c-6 -2 -10 -7 -7 -12 2 -4 -23 -13
-58 -19 -188 -37 -297 -203 -229 -353 39 -86 138 -155 238 -165 44 -5 54 -9
54 -24 0 -11 -7 -19 -15 -19 -8 0 -15 -4 -15 -10 -5 -98 0 -183 12 -197 9 -12
9 -15 0 -9 -7 4 -20 0 -30 -10 -16 -17 -17 -12 -20 91 l-3 108 -52 -7 c-29 -3
-80 -6 -115 -6 l-62 0 2 -342 3 -343 112 -3 112 -3 3 157 c3 133 5 157 18 159
9 2 17 -5 17 -16 1 -11 -2 -19 -7 -19 -5 0 -11 -71 -12 -157 l-3 -158 -147 -3
-148 -3 0 386 0 385 138 1 c131 1 135 1 90 14 -99 27 -181 94 -218 178 -29 66
-29 160 1 219 55 111 182 188 304 186 27 -1 44 -3 37 -6z m-445 -107 c18 -26
37 -63 43 -83 7 -29 14 -265 10 -394 0 -17 -18 -18 -234 -18 -129 0 -237 3
-239 8 -2 4 3 20 12 36 15 26 22 29 66 30 l50 1 0 93 c0 79 2 93 18 98 9 3 17
14 17 24 0 10 5 22 10 25 6 4 8 11 5 16 -3 5 1 6 9 3 13 -5 16 -27 16 -130 l0
-125 93 3 92 3 0 140 c-1 160 -15 215 -68 263 -39 34 -43 49 -15 48 12 -1 23
6 26 14 5 13 3 13 -13 0 -17 -14 -17 -14 -4 7 13 22 14 22 44 4 16 -11 45 -40
62 -66z m1123 -674 c0 -14 -10 -20 -47 -25 -102 -13 -205 -82 -243 -161 -75
-155 43 -335 238 -361 42 -5 52 -10 52 -25 0 -22 3 -22 -79 -9 -171 28 -284
146 -283 295 0 45 7 78 22 109 46 95 156 172 268 186 31 4 60 8 65 9 4 0 7 -7
7 -18z m1265 -16 c39 -19 50 -29 50 -47 l0 -24 -59 31 c-108 55 -229 36 -304
-49 -46 -53 -53 -92 -50 -271 l3 -160 108 -3 107 -3 1 133 c2 164 7 192 37
196 34 5 42 -32 42 -189 l0 -139 63 0 c44 0 58 -3 47 -10 -11 -7 -11 -10 -2
-10 7 0 10 -4 7 -10 -3 -5 -35 -10 -71 -10 l-64 0 0 143 c0 145 -6 191 -21
181 -5 -3 -9 -77 -9 -165 l0 -159 -150 0 -150 0 0 191 c0 215 6 250 58 309 82
97 236 125 357 65z m920 25 c-3 -5 -1 -10 6 -10 28 0 -3 -12 -64 -25 -81 -17
-131 -42 -181 -91 -77 -75 -97 -174 -52 -270 38 -81 114 -135 227 -158 33 -6
60 -15 60 -19 1 -25 -9 -28 -69 -18 -187 30 -302 155 -290 315 6 76 33 130 90
182 58 54 124 84 205 93 38 5 69 9 71 10 2 0 0 -3 -3 -9z m-3314 -97 c120
-138 99 -329 -49 -438 -56 -42 -156 -75 -223 -75 l-49 0 0 -96 0 -96 -127 7
c-71 4 -130 9 -132 11 -3 2 4 10 14 18 10 7 15 18 12 23 -10 16 17 23 84 23
l59 0 0 108 c0 100 2 113 29 165 16 31 31 53 35 50 3 -4 6 -38 6 -76 l0 -70
63 5 c166 14 282 135 263 275 -8 61 -44 114 -106 159 l-50 36 23 19 c20 17 20
18 2 13 l-20 -7 20 16 c18 14 24 13 68 -11 27 -14 62 -41 78 -59z m1769 74 c0
-6 -21 -23 -47 -37 -58 -30 -99 -86 -113 -153 -6 -29 -10 -113 -8 -192 l3
-140 83 -3 c74 -3 82 -5 82 -22 0 -19 -7 -20 -111 -20 l-111 0 4 198 c4 218
11 247 71 311 49 52 147 91 147 58z m-377 -1081 c3 -8 3 -17 0 -20 -4 -3 -521
-6 -1150 -6 -1136 0 -1143 0 -1143 20 0 20 7 20 1144 20 972 0 1145 -2 1149
-14z"/>
<path d="M1165 3907 l-60 -12 0 -395 0 -395 65 -12 c80 -15 193 -16 240 -3 56
15 125 64 168 119 142 179 114 476 -58 624 -83 71 -224 100 -355 74z"/>
</g>
</svg>
