<?xml version="1.0" standalone="no"?>
<!DOCTYPE svg PUBLIC "-//W3C//DTD SVG 20010904//EN"
 "http://www.w3.org/TR/2001/REC-SVG-20010904/DTD/svg10.dtd">
<svg version="1.0" xmlns="http://www.w3.org/2000/svg"
 width="667.000000pt" height="667.000000pt" viewBox="0 0 667.000000 667.000000"
 preserveAspectRatio="xMidYMid meet">
<metadata>
Created by potrace 1.16, written by Peter Selinger 2001-2019
</metadata>
<g transform="translate(0.000000,667.000000) scale(0.100000,-0.100000)"
fill="#000000" stroke="none">
<path d="M1495 4541 c-3 -6 -1 -11 5 -11 6 0 9 -4 6 -8 -3 -5 4 -25 14 -45 12
-23 16 -37 9 -37 -8 0 -8 -4 0 -14 6 -7 10 -20 8 -27 -2 -8 -2 -11 0 -6 8 14
22 -4 16 -20 -4 -10 -2 -14 4 -10 13 8 5 -31 -10 -51 -16 -20 -9 -185 8 -198
20 -15 19 -24 -1 -24 -13 0 -15 -8 -12 -36 4 -30 2 -35 -14 -31 -10 3 -18 0
-19 -6 0 -7 -4 -3 -9 8 -5 11 -9 14 -9 8 -1 -7 -7 -13 -13 -13 -7 0 -33 52
-57 115 -24 64 -46 114 -48 112 -2 -2 15 -53 39 -112 33 -87 39 -110 27 -114
-8 -2 19 -10 58 -17 107 -18 178 -43 247 -86 33 -21 49 -28 34 -16 -15 13 -38
52 -52 88 -42 113 -217 554 -221 558 -1 2 -6 -1 -10 -7z"/>
<path d="M3710 4020 c0 -5 18 -19 40 -30 25 -13 47 -34 56 -54 15 -30 15 -35
-1 -66 -11 -21 -30 -38 -56 -48 -26 -10 -39 -21 -39 -34 0 -15 8 -18 55 -18
l55 0 -2 -242 -3 -243 -52 -3 c-106 -6 -42 -42 73 -42 l34 0 0 285 c0 278 0
285 -20 285 -24 0 -25 4 -3 36 20 31 19 96 -3 128 -26 41 -134 77 -134 46z"/>
<path d="M4515 4020 c-3 -5 7 -15 22 -22 49 -21 83 -59 83 -93 0 -34 -38 -77
-77 -90 -14 -4 -23 -14 -23 -26 0 -16 7 -19 50 -19 l50 0 0 -245 0 -245 -50 0
c-61 0 -70 -24 -12 -34 51 -8 112 -8 113 2 2 13 2 54 0 310 -1 217 -3 252 -16
252 -18 0 -18 8 0 40 18 31 19 77 2 110 -25 50 -123 91 -142 60z"/>
<path d="M3218 4012 l-37 -3 -3 -87 c-3 -82 -4 -86 -27 -92 -23 -5 -23 -6 -7
-23 10 -9 24 -17 32 -17 11 0 14 -20 14 -104 0 -103 0 -103 -24 -101 -19 2
-23 -1 -19 -16 3 -10 9 -19 14 -19 18 0 9 -49 -10 -55 -25 -7 -17 -35 10 -35
10 0 27 10 39 22 19 21 20 34 20 260 l0 239 113 -3 112 -3 3 -230 c3 -259 -5
-304 -63 -373 -44 -51 -123 -92 -190 -99 -45 -5 -55 -9 -55 -24 0 -24 45 -25
121 -3 118 34 209 126 229 234 5 29 10 163 10 297 l0 244 -122 -3 c-68 -1
-140 -4 -160 -6z"/>
<path d="M4158 4013 c-45 -5 -52 -30 -10 -35 l27 -3 3 -102 3 -103 44 0 45 0
0 -100 0 -100 -45 0 c-43 0 -45 -1 -45 -28 0 -39 20 -62 60 -71 l35 -7 3 -97
3 -97 -43 0 c-24 0 -60 4 -80 9 -21 5 -38 6 -38 2 1 -29 67 -50 158 -51 l52 0
0 140 0 140 -32 1 c-18 0 -42 4 -53 9 -15 6 -8 9 28 9 l47 1 0 140 0 140 -50
0 -50 0 0 105 c0 78 -3 105 -12 103 -7 -1 -30 -3 -50 -5z"/>
<path d="M2260 3847 c-78 -23 -123 -49 -181 -107 -115 -114 -121 -279 -14
-398 69 -77 187 -131 215 -97 7 8 9 15 5 15 -5 0 2 9 15 20 l23 20 -22 0 c-53
0 -165 80 -195 139 -40 78 -22 181 41 245 88 90 230 119 360 73 52 -18 70 -21
66 -11 -7 19 16 17 41 -3 12 -10 8 -4 -7 14 -21 22 -25 33 -16 38 8 6 10 4 4
-5 -5 -9 -4 -11 4 -6 6 4 9 12 5 17 -3 5 -10 7 -15 4 -5 -4 -9 -2 -9 3 0 36
-234 64 -320 39z"/>
<path d="M2343 3618 c-61 -16 -92 -87 -58 -135 28 -40 136 -56 121 -18 -3 8 3
17 15 20 10 4 19 13 19 21 0 8 7 25 15 38 14 21 14 25 -2 45 -23 28 -69 40
-110 29z"/>
<path d="M1956 3378 c-15 -93 -91 -216 -171 -275 l-30 -22 238 -1 237 0 0 29
c0 27 -4 30 -42 36 -60 10 -113 39 -141 77 -38 51 -70 119 -77 163 l-6 40 -8
-47z"/>
<path d="M2260 3065 c-109 -30 -213 -127 -240 -223 -5 -21 -10 -155 -10 -309
l0 -273 49 0 c40 0 53 4 65 22 22 31 20 46 -6 50 l-23 3 3 230 c4 221 5 232
29 283 54 114 179 163 361 140 38 -5 52 -3 49 5 -2 6 6 20 17 29 12 10 17 18
11 17 -5 -1 -28 6 -50 16 -55 24 -185 29 -255 10z"/>
<path d="M3104 3050 c3 -14 5 -29 5 -33 1 -4 17 -5 36 -1 59 11 130 -13 169
-56 45 -50 51 -82 51 -285 l0 -170 -112 -3 -112 -3 -3 157 c-2 94 -7 159 -13
161 -10 3 -10 -316 0 -345 4 -10 38 -12 146 -10 l142 3 -2 213 c-1 167 -4 220
-16 250 -36 84 -105 125 -210 125 -41 0 -73 4 -78 11 -4 6 -5 0 -3 -14z"/>
<path d="M4498 3053 c-27 -3 -38 -9 -38 -21 0 -15 11 -17 77 -17 l78 0 3 -99
3 -99 -31 6 c-23 5 -35 2 -50 -13 -18 -18 -20 -34 -20 -165 l0 -145 -30 0
c-23 0 -30 -4 -30 -20 0 -17 7 -20 50 -20 l49 0 3 153 3 152 25 -1 c14 0 37
-4 53 -9 l27 -7 0 150 0 149 -37 7 c-39 6 -69 6 -135 -1z"/>
<path d="M5234 3046 c-52 -16 -104 -47 -104 -61 0 -23 13 -23 63 3 102 53 248
26 305 -58 36 -53 43 -100 40 -267 l-3 -158 -110 0 -110 0 -5 160 c-5 157 -5
160 -27 163 -35 5 -43 -32 -43 -188 l0 -139 -52 -3 c-40 -2 -52 -7 -54 -20 -2
-16 7 -18 62 -18 36 0 64 4 64 10 0 6 1 73 1 151 0 77 3 147 6 155 15 41 23
-2 25 -148 l3 -163 148 -3 147 -3 0 189 c0 206 -9 257 -54 317 -55 72 -202
111 -302 81z"/>
<path d="M6000 3050 c7 -4 10 -12 6 -18 -3 -5 15 -12 44 -16 109 -15 183 -58
228 -135 26 -44 27 -52 30 -213 l4 -168 -111 0 -111 0 0 119 c0 65 -5 132 -11
150 -16 47 -69 71 -69 31 0 -11 4 -20 9 -20 5 0 13 -9 16 -20 8 -24 -12 -53
-30 -46 -8 3 -11 -2 -8 -14 4 -14 12 -17 34 -13 l30 4 -3 -97 c-3 -94 -4 -98
-27 -104 -13 -3 -25 -14 -27 -24 -2 -14 2 -17 19 -12 12 3 93 6 180 6 l159 0
-4 193 -3 192 -31 55 c-50 90 -146 142 -282 153 -30 2 -48 1 -42 -3z"/>
<path d="M3820 3038 c0 -11 15 -17 52 -22 78 -11 142 -43 192 -96 57 -61 68
-112 64 -285 l-3 -130 -112 -3 -113 -3 0 140 c0 139 0 140 -26 160 -29 22 -59
27 -69 11 -3 -5 5 -15 19 -21 36 -17 41 -40 15 -62 -18 -14 -20 -20 -10 -27
12 -7 12 -9 0 -13 -8 -2 -2 -3 14 -1 l27 4 0 -100 c0 -99 0 -100 -24 -100 -17
0 -24 -5 -22 -17 2 -10 8 -18 14 -17 7 1 86 2 177 3 l165 1 0 168 c0 206 -11
253 -76 322 -55 59 -127 91 -216 98 -56 4 -68 2 -68 -10z"/>
<path d="M2345 2841 c-51 -22 -60 -46 -63 -170 -2 -113 -2 -115 14 -86 9 17
22 33 28 37 6 4 7 8 3 8 -5 0 -1 7 7 16 9 8 16 21 16 29 0 7 6 15 13 18 7 3 2
12 -15 26 -16 13 -28 27 -28 33 0 6 9 3 20 -7 25 -23 59 -13 39 12 -13 14 -11
16 14 11 23 -5 27 -2 27 19 0 13 4 21 10 18 6 -4 7 1 3 11 -5 13 -3 15 8 9 10
-6 11 -5 3 4 -14 16 -74 23 -99 12z"/>
<path d="M4083 1940 c-2 -20 4 -20 1138 -20 1132 0 1139 0 1139 20 0 20 -7 20
-1138 20 -1131 0 -1138 0 -1139 -20z"/>
</g>
</svg>
